<svg width="180" height="46" viewBox="0 0 180 46" fill="none" xmlns="http://www.w3.org/2000/svg">
<g clip-path="url(#clip0_280_31)">
<path d="M0.155457 39.04V20.48L6.90311 13.824H19.8743L23.7395 17.088V0H32.3869V45.696H24.2636V40.768L19.2192 45.696H6.90311L0.155457 39.04ZM18.4331 38.528L23.7395 33.216V24.896L19.2847 20.992H11.2924L8.80293 23.488V36.032L11.2924 38.528H18.4331ZM36.3165 38.976V13.824H44.964V36.352L47.1914 38.528H52.4323L58.8524 32.256V13.824H67.4998V45.696H59.5075V40.256L53.8735 45.696H43.1952L36.3165 38.976ZM71.4187 39.04V20.48L78.1664 13.824H96.9026L103.651 20.48V39.04L96.9026 45.696H78.1664L71.4187 39.04ZM92.7098 38.656L95.0027 36.416V23.104L92.7098 20.864H82.3591L80.0662 23.104V36.416L82.3591 38.656H92.7098ZM107.568 38.784V0H116.216V18.24L120.998 13.824H132.921L139.669 20.48V39.04L132.921 45.696H114.578L107.568 38.784ZM128.532 38.528L131.021 36.032V23.488L128.532 20.992H122.112L116.216 26.752V36.032L118.705 38.528H128.532ZM143.204 13.824H151.852V45.696H143.204V13.824ZM161.095 39.168V20.928H155.199V13.824H161.226V3.456H169.742V13.824H179.7V20.992H169.742V36.416L171.97 38.528H179.7V45.696H167.842L161.095 39.168Z" fill="#040404"/>
<path d="M142.033 2.93364L145.049 0H149.639L152.651 2.93364V7.03911L149.639 9.98833H145.049L142.033 7.03911V2.93364Z" fill="#FFB300"/>
</g>
<defs>
<clipPath id="clip0_280_31">
<rect width="180" height="46" fill="white"/>
</clipPath>
</defs>
</svg>
